<svg width="20" height="20" viewBox="0 0 20 20" fill="none" xmlns="http://www.w3.org/2000/svg">
    <path fill-rule="evenodd" clip-rule="evenodd" d="M6.36366 3.03033C6.65656 2.73744 6.65656 2.26256 6.36366 1.96967C6.07077 1.67678 5.5959 1.67678 5.303 1.96967L1.96967 5.303C1.67678 5.5959 1.67678 6.07077 1.96967 6.36366L5.303 9.697C5.5959 9.98989 6.07077 9.98989 6.36366 9.697C6.65656 9.4041 6.65656 8.92923 6.36366 8.63634L4.31066 6.58333H14.1667C14.5809 6.58333 14.9167 6.24755 14.9167 5.83333C14.9167 5.41912 14.5809 5.08333 14.1667 5.08333H4.31066L6.36366 3.03033ZM13.6363 11.3637C13.3434 11.0708 13.3434 10.5959 13.6363 10.303C13.9292 10.0101 14.4041 10.0101 14.697 10.303L18.0303 13.6363C18.171 13.777 18.25 13.9678 18.25 14.1667C18.25 14.3656 18.171 14.5563 18.0303 14.697L14.697 18.0303C14.4041 18.3232 13.9292 18.3232 13.6363 18.0303C13.3434 17.7374 13.3434 17.2626 13.6363 16.9697L15.6893 14.9167H5.83333C5.41912 14.9167 5.08333 14.5809 5.08333 14.1667C5.08333 13.7525 5.41912 13.4167 5.83333 13.4167H15.6893L13.6363 11.3637Z" fill="#69819D"/>
</svg>
