<svg viewBox="0 0 17 18" fill="none" xmlns="http://www.w3.org/2000/svg">
    <path fill-rule="evenodd" clip-rule="evenodd" d="M7.40621 0.750003L7.44152 0.750006H9.55848L9.59378 0.750003C9.91119 0.749964 10.2092 0.749927 10.459 0.778441C10.7371 0.810197 11.0296 0.883615 11.3025 1.08033C11.5754 1.27705 11.7375 1.53125 11.8556 1.78509C11.9616 2.013 12.0559 2.29576 12.1562 2.59688L12.1674 2.63038L12.3739 3.25001H14.3333H16C16.4142 3.25001 16.75 3.58579 16.75 4.00001C16.75 4.41422 16.4142 4.75001 16 4.75001H15.035L14.5809 11.561L14.5782 11.6015C14.5118 12.5985 14.4581 13.4042 14.3481 14.0482C14.2343 14.7144 14.049 15.2867 13.6688 15.7824C13.4182 16.1091 13.1154 16.3923 12.7727 16.6207C12.2529 16.9671 11.6695 17.1139 10.9972 17.1831C10.3474 17.25 9.53993 17.25 8.5407 17.25H8.5406H8.5H8.4594H8.4593C7.46007 17.25 6.65262 17.25 6.0028 17.1831C5.33046 17.1139 4.74713 16.9671 4.22729 16.6207C3.88459 16.3923 3.58184 16.1091 3.3312 15.7824C2.951 15.2867 2.76568 14.7144 2.6519 14.0482C2.54193 13.4042 2.48823 12.5986 2.42177 11.6015L2.41907 11.561L1.965 4.75001H1C0.585786 4.75001 0.25 4.41422 0.25 4.00001C0.25 3.58579 0.585786 3.25001 1 3.25001H2.66667H4.6261L4.83264 2.63038L4.8438 2.59689C4.94413 2.29577 5.03835 2.01301 5.14438 1.78509C5.26246 1.53125 5.42459 1.27705 5.69752 1.08033C5.97045 0.883615 6.26287 0.810197 6.54102 0.778441C6.79077 0.749927 7.08881 0.749964 7.40621 0.750003ZM6.20724 3.25001H10.7928L10.7443 3.10472C10.6289 2.75832 10.5611 2.55863 10.4956 2.41778C10.466 2.35424 10.4457 2.32282 10.4348 2.30824C10.4298 2.3015 10.427 2.29862 10.4264 2.29802L10.4254 2.2972L10.4243 2.29655C10.4236 2.29616 10.42 2.29439 10.412 2.29175C10.3947 2.28604 10.3585 2.27671 10.2888 2.26876C10.1345 2.25114 9.92362 2.25001 9.55848 2.25001H7.44152C7.07638 2.25001 6.86551 2.25114 6.71117 2.26876C6.64154 2.27671 6.60531 2.28604 6.58804 2.29175C6.58005 2.29439 6.57643 2.29616 6.57566 2.29655L6.57458 2.2972L6.57363 2.29802C6.57302 2.29862 6.57019 2.3015 6.56516 2.30824C6.55428 2.32282 6.53397 2.35424 6.50441 2.41778C6.43889 2.55863 6.37113 2.75832 6.25566 3.10472L6.20724 3.25001ZM3.46833 4.75001L3.91574 11.4612C3.98555 12.5083 4.03504 13.2368 4.1305 13.7957C4.22362 14.341 4.34898 14.6447 4.52138 14.8694C4.67177 15.0655 4.85342 15.2354 5.05904 15.3724C5.29476 15.5295 5.6061 15.6344 6.1564 15.691C6.72043 15.7491 7.45052 15.75 8.5 15.75C9.54948 15.75 10.2796 15.7491 10.8436 15.691C11.3939 15.6344 11.7052 15.5295 11.941 15.3724C12.1466 15.2354 12.3282 15.0655 12.4786 14.8694C12.651 14.6447 12.7764 14.341 12.8695 13.7957C12.965 13.2368 13.0144 12.5083 13.0843 11.4612L13.5317 4.75001H11.8333H5.16667H3.46833ZM6.83333 6.58334C7.24755 6.58334 7.58333 6.91913 7.58333 7.33334V13.1667C7.58333 13.5809 7.24755 13.9167 6.83333 13.9167C6.41912 13.9167 6.08333 13.5809 6.08333 13.1667V7.33334C6.08333 6.91913 6.41912 6.58334 6.83333 6.58334ZM10.9167 7.33334C10.9167 6.91913 10.5809 6.58334 10.1667 6.58334C9.75245 6.58334 9.41667 6.91913 9.41667 7.33334V10.6667C9.41667 11.0809 9.75245 11.4167 10.1667 11.4167C10.5809 11.4167 10.9167 11.0809 10.9167 10.6667V7.33334Z" fill="#69819D"/>
</svg>